<?xml version="1.0" encoding="UTF-8"?> <svg xmlns="http://www.w3.org/2000/svg" id="Layer_1" version="1.1" viewBox="0 0 9.1 8.05"><defs><style> .st0 { fill: none; } .st1 { fill: #231f20; } .st2 { fill: #19171c; } </style></defs><path class="st0" d="M6.88,1.61s0-.03,0-.04c-.02-.17-.05-.33-.09-.48-.02-.09-.04-.18-.05-.27H2.72l-.05.26c-.05.16-.08.32-.09.48,0,.02,0,.04,0,.04,0,.06,0,.11,0,.16,0,.37.09.73.25,1.05,0,.02.02.04.03.05.08.14.18.28.29.4l1.54,2.18v1.63h.1v-1.65s1.03-1.43,1.53-2.15l.32-.46c.17-.32.25-.68.25-1.05,0-.05,0-.11,0-.16Z"></path><path class="st2" d="M6.91.91l-.05-.24v.06c.02.06.04.12.05.18Z"></path><path class="st2" d="M2.43,1.54s0-.07.01-.11c0,.04,0,.07-.01.11,0,0,0,0,0,0Z"></path><path class="st2" d="M2.7,2.91l.02.03c.04.07.08.14.13.2-.05-.07-.09-.13-.13-.21,0-.01-.01-.02-.02-.03Z"></path><path class="st2" d="M7.03,1.57s0,.03,0,.03c0,.05,0,.11,0,.16,0-.06,0-.11,0-.17,0,0,0-.02,0-.03Z"></path><path class="st2" d="M6.76,2.91v-.02c.09-.16.15-.32.2-.49-.05.17-.1.34-.18.49v.02Z"></path><path class="st2" d="M4.95,5.48l.91-1.29c-.42.59-.84,1.19-.93,1.31v-.02Z"></path><path class="st2" d="M2.91,3.23s.07.09.11.14h0s-.08-.09-.11-.14Z"></path><polygon class="st2" points="2.53 1.04 2.57 .84 2.52 1.05 2.53 1.04"></polygon><path class="st2" d="M7.02,1.44c-.02-.13-.05-.26-.09-.39,0,0,0,0,0,0,.04.12.07.25.08.39Z"></path><path class="st1" d="M7.19,1.59s0-.05,0-.07c-.01-.17-.05-.35-.1-.51l-.09-.49H2.47l-.1.49c-.05.16-.08.34-.1.5,0,0,0,.02,0,.08,0,.05,0,.11,0,.17,0,.41.1.83.29,1.19l.03.06c.09.17.2.32.32.45l1.47,2.08v1.54h-.98v.3h2.67v-.3h-.98v-1.54l1.48-2.09.3-.42.04-.08c.19-.36.29-.78.29-1.19,0-.06,0-.12,0-.17ZM2.43,1.54s0,0,0,0c0-.04,0-.08.01-.11,0,.04,0,.07-.01.11ZM7.02,1.44c-.02-.14-.05-.27-.08-.39,0,0,0,0,0,0,.04.13.07.26.09.39ZM6.91.91c-.01-.06-.02-.12-.04-.18v-.06s.04.24.04.24ZM2.53,1.04s0,0,0,0l.04-.21-.04.2ZM2.72,2.94l-.02-.03s.01.02.02.03c.04.07.08.14.13.21-.05-.07-.09-.13-.13-.2ZM2.91,3.23s.07.09.11.13h0s-.08-.09-.11-.13ZM4.95,5.48v.02c.07-.11.49-.72.91-1.31l-.91,1.29ZM6.32,3.28c-.51.72-1.52,2.15-1.52,2.15v.02s-.01,1.63-.01,1.63h-.1v-1.63l-1.54-2.18c-.11-.12-.21-.26-.29-.4,0-.02-.02-.04-.03-.05-.17-.32-.25-.69-.25-1.05,0-.05,0-.11,0-.16,0,0,0-.02,0-.04.01-.16.04-.32.09-.48l.05-.26h4.02c.02.09.03.17.05.27.05.15.08.31.09.48,0,.01,0,.03,0,.04,0,.05,0,.11,0,.16,0,.37-.09.73-.25,1.05l-.32.46ZM6.77,2.88v.02s0-.02,0-.02c.08-.16.14-.32.18-.49-.04.17-.1.34-.18.49ZM7.03,1.6s0-.02,0-.03c0,.01,0,.02,0,.03,0,.06,0,.11,0,.17,0-.06,0-.11,0-.16Z"></path></svg> 