<?xml version="1.0" encoding="UTF-8"?> <svg xmlns="http://www.w3.org/2000/svg" id="Layer_1" version="1.1" viewBox="0 0 9.1 8.05"><defs><style> .st0 { fill: none; } .st1 { fill: #231f20; } </style></defs><path class="st0" d="M1.9,1.17c0,.54,1.07,1.02,2.45,1.1.2.03.34.22.34.43v4.67s0,.1-.03.14h.16s-.03-.09-.03-.14V2.7c0-.21.14-.4.33-.43,1.38-.08,2.45-.56,2.45-1.1v-.29H1.9v.29Z"></path><path class="st1" d="M1.61.58v.59c0,.73,1.12,1.3,2.71,1.39.02,0,.07.06.07.14v4.67s0,.04-.03.06l-.11.11h-.61c-.08,0-.15.07-.15.15s.07.15.15.15h2.17c.08,0,.15-.07.15-.15s-.07-.15-.15-.15h-.6l-.11-.11s-.03-.04-.03-.06V2.7c0-.08.04-.14.08-.14,1.56-.09,2.7-.67,2.7-1.39v-.59H1.61ZM7.56,1.17c0,.54-1.07,1.02-2.45,1.1-.19.03-.33.21-.33.43v4.67s0,.1.03.14h-.16s.03-.09.03-.14V2.7c0-.21-.14-.4-.34-.43-1.37-.08-2.45-.56-2.45-1.1v-.29h5.67v.29Z"></path></svg> 