<?xml version="1.0" encoding="UTF-8"?> <svg xmlns="http://www.w3.org/2000/svg" id="Layer_2" data-name="Layer 2" viewBox="0 0 19.81 21.92"><defs><style> .cls-1 { fill: #18171b; stroke-width: 0px; } </style></defs><g id="Layer_1-2" data-name="Layer 1"><g><path class="cls-1" d="M16.08.65c1.02,6.22,2.04,12.44,3.06,18.65.17,1.03-.63,1.96-1.67,1.96H2.34c-1.04,0-1.84-.94-1.67-1.96C1.69,13.09,2.72,6.87,3.74.65h12.34M16.21.5H3.61l-.02.13-1.53,9.33-1.53,9.33c-.09.53.06,1.08.41,1.49s.86.65,1.4.65h15.13c.54,0,1.05-.24,1.4-.65.35-.41.5-.96.41-1.49L16.23.63l-.02-.13h0Z"></path><path class="cls-1" d="M17.47,21.92H2.34c-.69,0-1.34-.3-1.78-.83-.45-.53-.64-1.22-.53-1.9L3.18,0h13.45l3.15,19.2c.11.68-.08,1.37-.53,1.89-.45.53-1.1.83-1.78.83ZM4.16,1.15L1.17,19.38c-.06.35.04.7.27.96.23.27.56.42.91.42h15.13c.35,0,.68-.15.91-.42.23-.27.32-.62.27-.96L15.66,1.15H4.16Z"></path></g></g></svg> 