<?xml version="1.0" encoding="UTF-8"?> <svg xmlns="http://www.w3.org/2000/svg" id="Layer_1" version="1.1" viewBox="0 0 30 30"><defs><style> .st0 { fill: #19171c; } </style></defs><g><path class="st0" d="M18.77,29.62h-7.54c-.1,0-.18-.1-.18-.22s.08-.22.18-.22h7.54c.1,0,.18.1.18.22s-.08.22-.18.22Z"></path><path class="st0" d="M18.77,30.01h-7.54c-.31,0-.57-.27-.57-.61s.25-.61.57-.61h7.54c.31,0,.57.27.57.61s-.25.61-.57.61Z"></path></g><path class="st0" d="M12.88,29.58l.98-.71c.11-.08.34-.25.35-.36.02-.19,0-.52,0-.55-.05-.59-.15-4.16-.06-13.44,0-.13-.06-.33-.1-.38-.38-.33-.64-.44-1.06-.62-1.82-.75-2.66-2.64-2.94-3.41-.39-1.08-.44-1.99-.47-2.49-.13-2.17-.13-4.61,0-7.26l.02-.37h10.96v6.7c0,.62-.08,1.9-.2,2.42-.52,2.33-1.83,3.49-2.84,4.06-.12.07-.24.13-.37.2-.35.19-.71.38-1.03.63-.08.07-.15.24-.16.4l-.05,13.67c0,.13,0,.24.03.34.06.22.23.39.31.47l.64.65-4,.05ZM10.32.77c-.11,2.48-.1,4.77.02,6.81.03.49.08,1.3.42,2.27.19.53.93,2.31,2.51,2.96.48.2.8.35,1.27.75.33.28.36.84.37.95-.08,9.27.02,12.81.06,13.39,0,.04.03.45,0,.69,0,.07-.02.14-.04.2h.32c-.02-.06-.04-.11-.06-.17-.05-.18-.07-.37-.06-.56l.05-13.67c.02-.37.18-.74.43-.96.39-.31.8-.53,1.17-.73.12-.06.24-.13.35-.19.87-.49,2.01-1.5,2.46-3.55.09-.42.17-1.62.17-2.26V.77s-9.44,0-9.44,0Z"></path></svg> 