<?xml version="1.0" encoding="UTF-8"?> <svg xmlns="http://www.w3.org/2000/svg" id="Layer_2" data-name="Layer 2" viewBox="0 0 17.35 32.88"><defs><style> .cls-1 { fill: #18171b; stroke-width: 0px; } </style></defs><g id="Layer_1-2" data-name="Layer 1"><g><g><path class="cls-1" d="M16.7.65v2.59c0,4-2.75,7.34-6.41,8.11h.13c-.68,0-1.23.64-1.23,1.43v18.52c0,.34.14.65.37.86h-1.77c.23-.22.37-.52.37-.86V12.78c0-.79-.55-1.43-1.23-1.43h.13C3.4,10.58.65,7.24.65,3.24V.65h16.05M16.85.5H.5v2.74c0,3.95,2.7,7.4,6.43,8.24v.02c.6,0,1.08.57,1.08,1.28v18.52c0,.29-.12.56-.33.76l-.28.26h2.52l-.28-.26c-.21-.2-.33-.47-.33-.76V12.78c0-.7.49-1.28,1.08-1.28v-.02c3.73-.84,6.43-4.28,6.43-8.24V.5h0Z"></path><path class="cls-1" d="M11.2,32.82h-5.05l1.19-1.12c.11-.1.17-.24.17-.39V12.78c0-.42-.27-.78-.58-.78h-.5v-.13s-.04-.01-.06-.02h-.89l.53-.11C2.48,10.57,0,7.12,0,3.24V0h17.35v3.24c0,3.88-2.48,7.33-6.01,8.5l.53.11h-.89s-.04.01-.06.02v.11l-.5.02c-.32,0-.58.36-.58.78v18.52c0,.15.06.29.17.39l1.19,1.12ZM8.62,31.67h.1c-.03-.12-.04-.24-.04-.36V12.78c0-.34.08-.65.21-.93h-.45c.14.28.21.59.21.93v18.52c0,.12-.01.25-.04.36ZM1.15,1.15v2.09c0,3.68,2.53,6.89,6.01,7.62l1.51.32,1.51-.32c3.48-.73,6.01-3.94,6.01-7.62V1.15H1.15Z"></path></g><g><path class="cls-1" d="M14.32,32.38H2.62s-.07-.03-.07-.08.03-.08.07-.08h11.7s.07.03.07.08-.03.08-.07.08Z"></path><path class="cls-1" d="M14.32,32.88H2.62c-.32,0-.57-.26-.57-.58s.26-.58.57-.58h11.7c.32,0,.57.26.57.58s-.26.58-.57.58Z"></path></g></g></g></svg> 