<?xml version="1.0" encoding="UTF-8"?> <svg xmlns="http://www.w3.org/2000/svg" id="Layer_1" version="1.1" viewBox="0 0 30 30"><defs><style> .st0 { fill: #19171c; } </style></defs><g><path class="st0" d="M20.27,29.21h-10.54c-.14,0-.25-.12-.25-.27s.11-.27.25-.27c2.2,0,4.4,0,6.61,0,1.31,0,2.62,0,3.93,0,.14.01.25.13.25.27,0,.15-.11.27-.25.27Z"></path><path class="st0" d="M20.27,29.81h-10.54c-.47,0-.85-.39-.85-.87s.38-.87.85-.87h10.54c.5.04.85.42.85.87,0,.48-.38.87-.85.87Z"></path></g><path class="st0" d="M16.8,28.67h-1.19s.07-7.3.07-7.3l.43-.12c.29-.08.57-.16.76-.37.26-.31.55-1.21.73-1.75.06-.18.11-.34.15-.47.17-.49.45-1.53.83-2.97.79-2.95,2.08-7.81,4.16-14.31H6.46V.19h17.9l-.25.78c-2.21,6.86-3.58,11.97-4.39,15.03-.4,1.52-.67,2.52-.86,3.06-.04.12-.09.27-.14.43-.29.92-.57,1.71-.96,2.16-.28.33-.62.5-.91.61l-.06,6.41Z"></path><path class="st0" d="M13.2,28.67l-.06-6.41c-.3-.11-.63-.29-.91-.61-.39-.45-.66-1.25-.95-2.16-.05-.17-.1-.32-.14-.43-.19-.54-.46-1.54-.86-3.06-.81-3.05-2.17-8.16-4.39-15.02l-.25-.78h17.9v1.19H7.27c2.08,6.5,3.37,11.36,4.15,14.3.38,1.44.66,2.48.83,2.97.04.13.1.29.15.47.17.54.46,1.44.72,1.75.18.21.47.29.7.35l.43.12.06.47.06,6.84h-1.19Z"></path></svg> 